<svg version="1.1" xmlns="http://www.w3.org/2000/svg" xmlns:xlink="http://www.w3.org/1999/xlink" width="1132" height="909"><defs><clipPath id="xWKXretGxsIc"><path fill="none" stroke="none" d=" M 0 0 L 1132 0 L 1132 909 L 0 909 L 0 0 Z"/></clipPath><pattern id="TtKncTECERmA" width="14" height="14" patternUnits="userSpaceOnUse"><path d="M14,0L0.0,14M-14,14L14,-14M28,0L0.0,28" style="stroke:#FFFFFF; stroke-width:2.5" fill="none"/></pattern></defs><g transform="scale(1,1)" clip-path="url(#xWKXretGxsIc)"><g><rect fill="rgb(255,255,255)" stroke="none" x="0" y="0" width="1132" height="909" fill-opacity="1"/><path fill="none" stroke="rgb(192,192,192)" paint-order="fill stroke markers" d=" M 143.5 0.5 L 143.5 909.5 M 243.5 0.5 L 243.5 909.5 M 342.5 0.5 L 342.5 909.5 M 442.5 0.5 L 442.5 909.5 M 542.5 0.5 L 542.5 909.5 M 642.5 0.5 L 642.5 909.5 M 742.5 0.5 L 742.5 909.5 M 842.5 0.5 L 842.5 909.5 M 942.5 0.5 L 942.5 909.5 M 1042.5 0.5 L 1042.5 909.5" stroke-opacity="1" stroke-linecap="round" stroke-linejoin="round" stroke-miterlimit="10"/><path fill="none" stroke="rgb(192,192,192)" paint-order="fill stroke markers" d=" M 3.5 0.5 L 3.5 909.5 M 23.5 0.5 L 23.5 909.5 M 63.5 0.5 L 63.5 909.5 M 83.5 0.5 L 83.5 909.5 M 103.5 0.5 L 103.5 909.5 M 123.5 0.5 L 123.5 909.5 M 163.5 0.5 L 163.5 909.5 M 183.5 0.5 L 183.5 909.5 M 203.5 0.5 L 203.5 909.5 M 223.5 0.5 L 223.5 909.5 M 262.5 0.5 L 262.5 909.5 M 282.5 0.5 L 282.5 909.5 M 302.5 0.5 L 302.5 909.5 M 322.5 0.5 L 322.5 909.5 M 362.5 0.5 L 362.5 909.5 M 382.5 0.5 L 382.5 909.5 M 402.5 0.5 L 402.5 909.5 M 422.5 0.5 L 422.5 909.5 M 462.5 0.5 L 462.5 909.5 M 482.5 0.5 L 482.5 909.5 M 502.5 0.5 L 502.5 909.5 M 522.5 0.5 L 522.5 909.5 M 562.5 0.5 L 562.5 909.5 M 582.5 0.5 L 582.5 909.5 M 602.5 0.5 L 602.5 909.5 M 622.5 0.5 L 622.5 909.5 M 662.5 0.5 L 662.5 909.5 M 682.5 0.5 L 682.5 909.5 M 702.5 0.5 L 702.5 909.5 M 722.5 0.5 L 722.5 909.5 M 762.5 0.5 L 762.5 909.5 M 782.5 0.5 L 782.5 909.5 M 802.5 0.5 L 802.5 909.5 M 822.5 0.5 L 822.5 909.5 M 862.5 0.5 L 862.5 909.5 M 882.5 0.5 L 882.5 909.5 M 902.5 0.5 L 902.5 909.5 M 922.5 0.5 L 922.5 909.5 M 962.5 0.5 L 962.5 909.5 M 982.5 0.5 L 982.5 909.5 M 1002.5 0.5 L 1002.5 909.5 M 1022.5 0.5 L 1022.5 909.5 M 1062.5 0.5 L 1062.5 909.5 M 1082.5 0.5 L 1082.5 909.5 M 1102.5 0.5 L 1102.5 909.5 M 1122.5 0.5 L 1122.5 909.5" stroke-opacity="0.23529411764705882" stroke-linecap="round" stroke-linejoin="round" stroke-miterlimit="10"/><path fill="none" stroke="rgb(192,192,192)" paint-order="fill stroke markers" d=" M 0.5 71.5 L 1132.5 71.5 M 0.5 71.5 L 1132.5 71.5 M 0.5 171.5 L 1132.5 171.5 M 0.5 271.5 L 1132.5 271.5 M 0.5 371.5 L 1132.5 371.5 M 0.5 471.5 L 1132.5 471.5 M 0.5 571.5 L 1132.5 571.5 M 0.5 671.5 L 1132.5 671.5 M 0.5 770.5 L 1132.5 770.5" stroke-opacity="1" stroke-linecap="round" stroke-linejoin="round" stroke-miterlimit="10"/><path fill="none" stroke="rgb(192,192,192)" paint-order="fill stroke markers" d=" M 0.5 11.5 L 1132.5 11.5 M 0.5 11.5 L 1132.5 11.5 M 0.5 31.5 L 1132.5 31.5 M 0.5 51.5 L 1132.5 51.5 M 0.5 91.5 L 1132.5 91.5 M 0.5 111.5 L 1132.5 111.5 M 0.5 131.5 L 1132.5 131.5 M 0.5 151.5 L 1132.5 151.5 M 0.5 191.5 L 1132.5 191.5 M 0.5 211.5 L 1132.5 211.5 M 0.5 231.5 L 1132.5 231.5 M 0.5 251.5 L 1132.5 251.5 M 0.5 291.5 L 1132.5 291.5 M 0.5 311.5 L 1132.5 311.5 M 0.5 331.5 L 1132.5 331.5 M 0.5 351.5 L 1132.5 351.5 M 0.5 391.5 L 1132.5 391.5 M 0.5 411.5 L 1132.5 411.5 M 0.5 431.5 L 1132.5 431.5 M 0.5 451.5 L 1132.5 451.5 M 0.5 491.5 L 1132.5 491.5 M 0.5 511.5 L 1132.5 511.5 M 0.5 531.5 L 1132.5 531.5 M 0.5 551.5 L 1132.5 551.5 M 0.5 591.5 L 1132.5 591.5 M 0.5 611.5 L 1132.5 611.5 M 0.5 631.5 L 1132.5 631.5 M 0.5 651.5 L 1132.5 651.5 M 0.5 691.5 L 1132.5 691.5 M 0.5 711.5 L 1132.5 711.5 M 0.5 731.5 L 1132.5 731.5 M 0.5 750.5 L 1132.5 750.5 M 0.5 790.5 L 1132.5 790.5 M 0.5 810.5 L 1132.5 810.5 M 0.5 830.5 L 1132.5 830.5 M 0.5 850.5 L 1132.5 850.5 M 0.5 890.5 L 1132.5 890.5" stroke-opacity="0.23529411764705882" stroke-linecap="round" stroke-linejoin="round" stroke-miterlimit="10"/><path fill="none" stroke="rgb(37,37,37)" paint-order="fill stroke markers" d=" M 43.5 2.5 L 43.5 909.5" stroke-opacity="1" stroke-miterlimit="10"/><path fill="none" stroke="rgb(37,37,37)" paint-order="fill stroke markers" d=" M 43.5 1.5 L 39.5 5.5" stroke-opacity="1" stroke-miterlimit="10"/><path fill="none" stroke="rgb(37,37,37)" paint-order="fill stroke markers" d=" M 43.5 1.5 L 47.5 5.5" stroke-opacity="1" stroke-miterlimit="10"/><path fill="none" stroke="rgb(37,37,37)" paint-order="fill stroke markers" d=" M 0.5 870.5 L 1130.5 870.5" stroke-opacity="1" stroke-miterlimit="10"/><path fill="none" stroke="rgb(37,37,37)" paint-order="fill stroke markers" d=" M 1131.5 870.5 L 1127.5 866.5" stroke-opacity="1" stroke-miterlimit="10"/><path fill="none" stroke="rgb(37,37,37)" paint-order="fill stroke markers" d=" M 1131.5 870.5 L 1127.5 874.5" stroke-opacity="1" stroke-miterlimit="10"/><text fill="rgb(37,37,37)" stroke="none" font-family="geogebra-sans-serif, sans-serif" font-size="12px" font-style="normal" font-weight="normal" text-decoration="normal" x="141" y="886" text-anchor="start" dominant-baseline="alphabetic" fill-opacity="1">1</text><text fill="none" stroke="rgb(255,255,255)" font-family="geogebra-sans-serif, sans-serif" font-size="12px" font-style="normal" font-weight="normal" text-decoration="normal" x="141" y="886" text-anchor="start" dominant-baseline="alphabetic" stroke-opacity="1" stroke-linejoin="bevel" stroke-miterlimit="10" stroke-width="3">1</text><text fill="rgb(37,37,37)" stroke="none" font-family="geogebra-sans-serif, sans-serif" font-size="12px" font-style="normal" font-weight="normal" text-decoration="normal" x="141" y="886" text-anchor="start" dominant-baseline="alphabetic" fill-opacity="1">1</text><text fill="rgb(37,37,37)" stroke="none" font-family="geogebra-sans-serif, sans-serif" font-size="12px" font-style="normal" font-weight="normal" text-decoration="normal" x="241" y="886" text-anchor="start" dominant-baseline="alphabetic" fill-opacity="1">2</text><text fill="none" stroke="rgb(255,255,255)" font-family="geogebra-sans-serif, sans-serif" font-size="12px" font-style="normal" font-weight="normal" text-decoration="normal" x="241" y="886" text-anchor="start" dominant-baseline="alphabetic" stroke-opacity="1" stroke-linejoin="bevel" stroke-miterlimit="10" stroke-width="3">2</text><text fill="rgb(37,37,37)" stroke="none" font-family="geogebra-sans-serif, sans-serif" font-size="12px" font-style="normal" font-weight="normal" text-decoration="normal" x="241" y="886" text-anchor="start" dominant-baseline="alphabetic" fill-opacity="1">2</text><text fill="rgb(37,37,37)" stroke="none" font-family="geogebra-sans-serif, sans-serif" font-size="12px" font-style="normal" font-weight="normal" text-decoration="normal" x="340" y="886" text-anchor="start" dominant-baseline="alphabetic" fill-opacity="1">3</text><text fill="none" stroke="rgb(255,255,255)" font-family="geogebra-sans-serif, sans-serif" font-size="12px" font-style="normal" font-weight="normal" text-decoration="normal" x="340" y="886" text-anchor="start" dominant-baseline="alphabetic" stroke-opacity="1" stroke-linejoin="bevel" stroke-miterlimit="10" stroke-width="3">3</text><text fill="rgb(37,37,37)" stroke="none" font-family="geogebra-sans-serif, sans-serif" font-size="12px" font-style="normal" font-weight="normal" text-decoration="normal" x="340" y="886" text-anchor="start" dominant-baseline="alphabetic" fill-opacity="1">3</text><text fill="rgb(37,37,37)" stroke="none" font-family="geogebra-sans-serif, sans-serif" font-size="12px" font-style="normal" font-weight="normal" text-decoration="normal" x="440" y="886" text-anchor="start" dominant-baseline="alphabetic" fill-opacity="1">4</text><text fill="none" stroke="rgb(255,255,255)" font-family="geogebra-sans-serif, sans-serif" font-size="12px" font-style="normal" font-weight="normal" text-decoration="normal" x="440" y="886" text-anchor="start" dominant-baseline="alphabetic" stroke-opacity="1" stroke-linejoin="bevel" stroke-miterlimit="10" stroke-width="3">4</text><text fill="rgb(37,37,37)" stroke="none" font-family="geogebra-sans-serif, sans-serif" font-size="12px" font-style="normal" font-weight="normal" text-decoration="normal" x="440" y="886" text-anchor="start" dominant-baseline="alphabetic" fill-opacity="1">4</text><text fill="rgb(37,37,37)" stroke="none" font-family="geogebra-sans-serif, sans-serif" font-size="12px" font-style="normal" font-weight="normal" text-decoration="normal" x="540" y="886" text-anchor="start" dominant-baseline="alphabetic" fill-opacity="1">5</text><text fill="none" stroke="rgb(255,255,255)" font-family="geogebra-sans-serif, sans-serif" font-size="12px" font-style="normal" font-weight="normal" text-decoration="normal" x="540" y="886" text-anchor="start" dominant-baseline="alphabetic" stroke-opacity="1" stroke-linejoin="bevel" stroke-miterlimit="10" stroke-width="3">5</text><text fill="rgb(37,37,37)" stroke="none" font-family="geogebra-sans-serif, sans-serif" font-size="12px" font-style="normal" font-weight="normal" text-decoration="normal" x="540" y="886" text-anchor="start" dominant-baseline="alphabetic" fill-opacity="1">5</text><text fill="rgb(37,37,37)" stroke="none" font-family="geogebra-sans-serif, sans-serif" font-size="12px" font-style="normal" font-weight="normal" text-decoration="normal" x="640" y="886" text-anchor="start" dominant-baseline="alphabetic" fill-opacity="1">6</text><text fill="none" stroke="rgb(255,255,255)" font-family="geogebra-sans-serif, sans-serif" font-size="12px" font-style="normal" font-weight="normal" text-decoration="normal" x="640" y="886" text-anchor="start" dominant-baseline="alphabetic" stroke-opacity="1" stroke-linejoin="bevel" stroke-miterlimit="10" stroke-width="3">6</text><text fill="rgb(37,37,37)" stroke="none" font-family="geogebra-sans-serif, sans-serif" font-size="12px" font-style="normal" font-weight="normal" text-decoration="normal" x="640" y="886" text-anchor="start" dominant-baseline="alphabetic" fill-opacity="1">6</text><text fill="rgb(37,37,37)" stroke="none" font-family="geogebra-sans-serif, sans-serif" font-size="12px" font-style="normal" font-weight="normal" text-decoration="normal" x="740" y="886" text-anchor="start" dominant-baseline="alphabetic" fill-opacity="1">7</text><text fill="none" stroke="rgb(255,255,255)" font-family="geogebra-sans-serif, sans-serif" font-size="12px" font-style="normal" font-weight="normal" text-decoration="normal" x="740" y="886" text-anchor="start" dominant-baseline="alphabetic" stroke-opacity="1" stroke-linejoin="bevel" stroke-miterlimit="10" stroke-width="3">7</text><text fill="rgb(37,37,37)" stroke="none" font-family="geogebra-sans-serif, sans-serif" font-size="12px" font-style="normal" font-weight="normal" text-decoration="normal" x="740" y="886" text-anchor="start" dominant-baseline="alphabetic" fill-opacity="1">7</text><text fill="rgb(37,37,37)" stroke="none" font-family="geogebra-sans-serif, sans-serif" font-size="12px" font-style="normal" font-weight="normal" text-decoration="normal" x="840" y="886" text-anchor="start" dominant-baseline="alphabetic" fill-opacity="1">8</text><text fill="none" stroke="rgb(255,255,255)" font-family="geogebra-sans-serif, sans-serif" font-size="12px" font-style="normal" font-weight="normal" text-decoration="normal" x="840" y="886" text-anchor="start" dominant-baseline="alphabetic" stroke-opacity="1" stroke-linejoin="bevel" stroke-miterlimit="10" stroke-width="3">8</text><text fill="rgb(37,37,37)" stroke="none" font-family="geogebra-sans-serif, sans-serif" font-size="12px" font-style="normal" font-weight="normal" text-decoration="normal" x="840" y="886" text-anchor="start" dominant-baseline="alphabetic" fill-opacity="1">8</text><text fill="rgb(37,37,37)" stroke="none" font-family="geogebra-sans-serif, sans-serif" font-size="12px" font-style="normal" font-weight="normal" text-decoration="normal" x="940" y="886" text-anchor="start" dominant-baseline="alphabetic" fill-opacity="1">9</text><text fill="none" stroke="rgb(255,255,255)" font-family="geogebra-sans-serif, sans-serif" font-size="12px" font-style="normal" font-weight="normal" text-decoration="normal" x="940" y="886" text-anchor="start" dominant-baseline="alphabetic" stroke-opacity="1" stroke-linejoin="bevel" stroke-miterlimit="10" stroke-width="3">9</text><text fill="rgb(37,37,37)" stroke="none" font-family="geogebra-sans-serif, sans-serif" font-size="12px" font-style="normal" font-weight="normal" text-decoration="normal" x="940" y="886" text-anchor="start" dominant-baseline="alphabetic" fill-opacity="1">9</text><text fill="rgb(37,37,37)" stroke="none" font-family="geogebra-sans-serif, sans-serif" font-size="12px" font-style="normal" font-weight="normal" text-decoration="normal" x="1037" y="886" text-anchor="start" dominant-baseline="alphabetic" fill-opacity="1">10</text><text fill="none" stroke="rgb(255,255,255)" font-family="geogebra-sans-serif, sans-serif" font-size="12px" font-style="normal" font-weight="normal" text-decoration="normal" x="1037" y="886" text-anchor="start" dominant-baseline="alphabetic" stroke-opacity="1" stroke-linejoin="bevel" stroke-miterlimit="10" stroke-width="3">10</text><text fill="rgb(37,37,37)" stroke="none" font-family="geogebra-sans-serif, sans-serif" font-size="12px" font-style="normal" font-weight="normal" text-decoration="normal" x="1037" y="886" text-anchor="start" dominant-baseline="alphabetic" fill-opacity="1">10</text><text fill="rgb(37,37,37)" stroke="none" font-family="geogebra-sans-serif, sans-serif" font-size="12px" font-style="normal" font-weight="normal" text-decoration="normal" x="29" y="775" text-anchor="start" dominant-baseline="alphabetic" fill-opacity="1">1</text><text fill="none" stroke="rgb(255,255,255)" font-family="geogebra-sans-serif, sans-serif" font-size="12px" font-style="normal" font-weight="normal" text-decoration="normal" x="29" y="775" text-anchor="start" dominant-baseline="alphabetic" stroke-opacity="1" stroke-linejoin="bevel" stroke-miterlimit="10" stroke-width="3">1</text><text fill="rgb(37,37,37)" stroke="none" font-family="geogebra-sans-serif, sans-serif" font-size="12px" font-style="normal" font-weight="normal" text-decoration="normal" x="29" y="775" text-anchor="start" dominant-baseline="alphabetic" fill-opacity="1">1</text><text fill="rgb(37,37,37)" stroke="none" font-family="geogebra-sans-serif, sans-serif" font-size="12px" font-style="normal" font-weight="normal" text-decoration="normal" x="29" y="676" text-anchor="start" dominant-baseline="alphabetic" fill-opacity="1">2</text><text fill="none" stroke="rgb(255,255,255)" font-family="geogebra-sans-serif, sans-serif" font-size="12px" font-style="normal" font-weight="normal" text-decoration="normal" x="29" y="676" text-anchor="start" dominant-baseline="alphabetic" stroke-opacity="1" stroke-linejoin="bevel" stroke-miterlimit="10" stroke-width="3">2</text><text fill="rgb(37,37,37)" stroke="none" font-family="geogebra-sans-serif, sans-serif" font-size="12px" font-style="normal" font-weight="normal" text-decoration="normal" x="29" y="676" text-anchor="start" dominant-baseline="alphabetic" fill-opacity="1">2</text><text fill="rgb(37,37,37)" stroke="none" font-family="geogebra-sans-serif, sans-serif" font-size="12px" font-style="normal" font-weight="normal" text-decoration="normal" x="29" y="576" text-anchor="start" dominant-baseline="alphabetic" fill-opacity="1">3</text><text fill="none" stroke="rgb(255,255,255)" font-family="geogebra-sans-serif, sans-serif" font-size="12px" font-style="normal" font-weight="normal" text-decoration="normal" x="29" y="576" text-anchor="start" dominant-baseline="alphabetic" stroke-opacity="1" stroke-linejoin="bevel" stroke-miterlimit="10" stroke-width="3">3</text><text fill="rgb(37,37,37)" stroke="none" font-family="geogebra-sans-serif, sans-serif" font-size="12px" font-style="normal" font-weight="normal" text-decoration="normal" x="29" y="576" text-anchor="start" dominant-baseline="alphabetic" fill-opacity="1">3</text><text fill="rgb(37,37,37)" stroke="none" font-family="geogebra-sans-serif, sans-serif" font-size="12px" font-style="normal" font-weight="normal" text-decoration="normal" x="29" y="476" text-anchor="start" dominant-baseline="alphabetic" fill-opacity="1">4</text><text fill="none" stroke="rgb(255,255,255)" font-family="geogebra-sans-serif, sans-serif" font-size="12px" font-style="normal" font-weight="normal" text-decoration="normal" x="29" y="476" text-anchor="start" dominant-baseline="alphabetic" stroke-opacity="1" stroke-linejoin="bevel" stroke-miterlimit="10" stroke-width="3">4</text><text fill="rgb(37,37,37)" stroke="none" font-family="geogebra-sans-serif, sans-serif" font-size="12px" font-style="normal" font-weight="normal" text-decoration="normal" x="29" y="476" text-anchor="start" dominant-baseline="alphabetic" fill-opacity="1">4</text><text fill="rgb(37,37,37)" stroke="none" font-family="geogebra-sans-serif, sans-serif" font-size="12px" font-style="normal" font-weight="normal" text-decoration="normal" x="29" y="376" text-anchor="start" dominant-baseline="alphabetic" fill-opacity="1">5</text><text fill="none" stroke="rgb(255,255,255)" font-family="geogebra-sans-serif, sans-serif" font-size="12px" font-style="normal" font-weight="normal" text-decoration="normal" x="29" y="376" text-anchor="start" dominant-baseline="alphabetic" stroke-opacity="1" stroke-linejoin="bevel" stroke-miterlimit="10" stroke-width="3">5</text><text fill="rgb(37,37,37)" stroke="none" font-family="geogebra-sans-serif, sans-serif" font-size="12px" font-style="normal" font-weight="normal" text-decoration="normal" x="29" y="376" text-anchor="start" dominant-baseline="alphabetic" fill-opacity="1">5</text><text fill="rgb(37,37,37)" stroke="none" font-family="geogebra-sans-serif, sans-serif" font-size="12px" font-style="normal" font-weight="normal" text-decoration="normal" x="29" y="276" text-anchor="start" dominant-baseline="alphabetic" fill-opacity="1">6</text><text fill="none" stroke="rgb(255,255,255)" font-family="geogebra-sans-serif, sans-serif" font-size="12px" font-style="normal" font-weight="normal" text-decoration="normal" x="29" y="276" text-anchor="start" dominant-baseline="alphabetic" stroke-opacity="1" stroke-linejoin="bevel" stroke-miterlimit="10" stroke-width="3">6</text><text fill="rgb(37,37,37)" stroke="none" font-family="geogebra-sans-serif, sans-serif" font-size="12px" font-style="normal" font-weight="normal" text-decoration="normal" x="29" y="276" text-anchor="start" dominant-baseline="alphabetic" fill-opacity="1">6</text><text fill="rgb(37,37,37)" stroke="none" font-family="geogebra-sans-serif, sans-serif" font-size="12px" font-style="normal" font-weight="normal" text-decoration="normal" x="29" y="176" text-anchor="start" dominant-baseline="alphabetic" fill-opacity="1">7</text><text fill="none" stroke="rgb(255,255,255)" font-family="geogebra-sans-serif, sans-serif" font-size="12px" font-style="normal" font-weight="normal" text-decoration="normal" x="29" y="176" text-anchor="start" dominant-baseline="alphabetic" stroke-opacity="1" stroke-linejoin="bevel" stroke-miterlimit="10" stroke-width="3">7</text><text fill="rgb(37,37,37)" stroke="none" font-family="geogebra-sans-serif, sans-serif" font-size="12px" font-style="normal" font-weight="normal" text-decoration="normal" x="29" y="176" text-anchor="start" dominant-baseline="alphabetic" fill-opacity="1">7</text><text fill="rgb(37,37,37)" stroke="none" font-family="geogebra-sans-serif, sans-serif" font-size="12px" font-style="normal" font-weight="normal" text-decoration="normal" x="29" y="76" text-anchor="start" dominant-baseline="alphabetic" fill-opacity="1">8</text><text fill="none" stroke="rgb(255,255,255)" font-family="geogebra-sans-serif, sans-serif" font-size="12px" font-style="normal" font-weight="normal" text-decoration="normal" x="29" y="76" text-anchor="start" dominant-baseline="alphabetic" stroke-opacity="1" stroke-linejoin="bevel" stroke-miterlimit="10" stroke-width="3">8</text><text fill="rgb(37,37,37)" stroke="none" font-family="geogebra-sans-serif, sans-serif" font-size="12px" font-style="normal" font-weight="normal" text-decoration="normal" x="29" y="76" text-anchor="start" dominant-baseline="alphabetic" fill-opacity="1">8</text><text fill="rgb(37,37,37)" stroke="none" font-family="geogebra-sans-serif, sans-serif" font-size="12px" font-style="normal" font-weight="normal" text-decoration="normal" x="29" y="886" text-anchor="start" dominant-baseline="alphabetic" fill-opacity="1">0</text><text fill="none" stroke="rgb(255,255,255)" font-family="geogebra-sans-serif, sans-serif" font-size="12px" font-style="normal" font-weight="normal" text-decoration="normal" x="29" y="886" text-anchor="start" dominant-baseline="alphabetic" stroke-opacity="1" stroke-linejoin="bevel" stroke-miterlimit="10" stroke-width="3">0</text><text fill="rgb(37,37,37)" stroke="none" font-family="geogebra-sans-serif, sans-serif" font-size="12px" font-style="normal" font-weight="normal" text-decoration="normal" x="29" y="886" text-anchor="start" dominant-baseline="alphabetic" fill-opacity="1">0</text><path fill="none" stroke="rgb(0,0,0)" paint-order="fill stroke markers" d=" M 143.8446081386461 739.8111791260936 L 241.09904459697847 649.5034881290713 L 344.30783430786175 585.9903867685282 L 542.7862760595605 541.3327373743962" stroke-opacity="0.6980392156862745" stroke-linecap="round" stroke-linejoin="round" stroke-miterlimit="10" stroke-width="2.5"/><path fill="rgb(51,51,255)" stroke="none" paint-order="stroke fill markers" d=" M 882.8424650311275 500.64465681529833 C 882.8424650311275 555.8163980448053 838.1169318086232 600.5419312673093 782.9451905791159 600.5419312673093 C 727.7734493496085 600.5419312673093 683.0479161271043 555.8163980448053 683.0479161271043 500.64465681529833 C 683.0479161271043 445.4729155857914 727.7734493496085 400.7473823632874 782.9451905791159 400.7473823632874 C 838.1169318086232 400.7473823632874 882.8424650311275 445.4729155857914 882.8424650311275 500.64465681529833 Z" fill-opacity="0.3568627450980392"/><path fill="none" stroke="rgb(51,51,255)" paint-order="fill stroke markers" d=" M 882.8424650311275 500.64465681529833 C 882.8424650311275 555.8163980448053 838.1169318086232 600.5419312673093 782.9451905791159 600.5419312673093 C 727.7734493496085 600.5419312673093 683.0479161271043 555.8163980448053 683.0479161271043 500.64465681529833 C 683.0479161271043 445.4729155857914 727.7734493496085 400.7473823632874 782.9451905791159 400.7473823632874 C 838.1169318086232 400.7473823632874 882.8424650311275 445.4729155857914 882.8424650311275 500.64465681529833 Z" stroke-opacity="0.6980392156862745" stroke-linecap="round" stroke-linejoin="round" stroke-miterlimit="10" stroke-width="0.5"/><path fill="url(#TtKncTECERmA)" stroke="none" paint-order="stroke fill markers" d=" M 802.9246454695183 500.64465681529833 C 802.9246454695183 511.67900506119975 793.9795388250174 520.6241117057006 782.9451905791159 520.6241117057006 C 771.9108423332144 520.6241117057006 762.9657356887136 511.67900506119975 762.9657356887136 500.64465681529833 C 762.9657356887136 489.610308569397 771.9108423332144 480.66520192489617 782.9451905791159 480.66520192489617 C 793.9795388250174 480.66520192489617 802.9246454695183 489.610308569397 802.9246454695183 500.64465681529833 Z"/><path fill="url(#TtKncTECERmA)" stroke="rgb(255,255,255)" paint-order="fill stroke markers" d=" M 802.9246454695183 500.64465681529833 C 802.9246454695183 511.67900506119975 793.9795388250174 520.6241117057006 782.9451905791159 520.6241117057006 C 771.9108423332144 520.6241117057006 762.9657356887136 511.67900506119975 762.9657356887136 500.64465681529833 C 762.9657356887136 489.610308569397 771.9108423332144 480.66520192489617 782.9451905791159 480.66520192489617 C 793.9795388250174 480.66520192489617 802.9246454695183 489.610308569397 802.9246454695183 500.64465681529833 Z" stroke-opacity="0.6980392156862745" stroke-linecap="round" stroke-linejoin="round" stroke-miterlimit="10" stroke-width="2.5"/><path fill="none" stroke="rgb(0,153,0)" paint-order="fill stroke markers" d=" M 542.7862760595605 541.3327373743962 L 782.9451905791159 500.64465681529833" stroke-opacity="0.6980392156862745" stroke-linecap="round" stroke-linejoin="round" stroke-miterlimit="10" stroke-width="2.5"/><path fill="none" stroke="rgb(255,0,0)" paint-order="fill stroke markers" d=" M 542.7862760595605 541.3327373743962 L 783 239.0000000000001" stroke-opacity="0.6980392156862745" stroke-linecap="round" stroke-linejoin="round" stroke-miterlimit="10" stroke-width="2.5"/><path fill="none" stroke="rgb(0,0,0)" paint-order="fill stroke markers" d=" M 783 239.0000000000001 L 782.9451905791159 500.64465681529833" stroke-opacity="0.6980392156862745" stroke-linejoin="round" stroke-miterlimit="10" stroke-width="1.5" stroke-dasharray="5.5,4"/><path fill="rgb(77,77,255)" stroke="none" paint-order="stroke fill markers" d=" M 148.8446081386461 739.8111791260936 C 148.8446081386461 742.5726028752476 146.60603188780007 744.8111791260936 143.8446081386461 744.8111791260936 C 141.08318438949212 744.8111791260936 138.8446081386461 742.5726028752476 138.8446081386461 739.8111791260936 C 138.8446081386461 737.0497553769396 141.08318438949212 734.8111791260936 143.8446081386461 734.8111791260936 C 146.60603188780007 734.8111791260936 148.8446081386461 737.0497553769396 148.8446081386461 739.8111791260936 Z" fill-opacity="1"/><path fill="none" stroke="rgb(0,0,0)" paint-order="fill stroke markers" d=" M 148.8446081386461 739.8111791260936 C 148.8446081386461 742.5726028752476 146.60603188780007 744.8111791260936 143.8446081386461 744.8111791260936 C 141.08318438949212 744.8111791260936 138.8446081386461 742.5726028752476 138.8446081386461 739.8111791260936 C 138.8446081386461 737.0497553769396 141.08318438949212 734.8111791260936 143.8446081386461 734.8111791260936 C 146.60603188780007 734.8111791260936 148.8446081386461 737.0497553769396 148.8446081386461 739.8111791260936 Z" stroke-opacity="1" stroke-linecap="round" stroke-linejoin="round" stroke-miterlimit="10"/><text fill="rgb(77,77,255)" stroke="none" font-family="geogebra-sans-serif, sans-serif" font-size="16px" font-style="normal" font-weight="normal" text-decoration="normal" x="148" y="730" text-anchor="start" dominant-baseline="alphabetic" fill-opacity="1">A</text><text fill="none" stroke="rgb(255,255,255)" font-family="geogebra-sans-serif, sans-serif" font-size="16px" font-style="normal" font-weight="normal" text-decoration="normal" x="148" y="730" text-anchor="start" dominant-baseline="alphabetic" stroke-opacity="1" stroke-linejoin="bevel" stroke-miterlimit="10" stroke-width="3">A</text><text fill="rgb(77,77,255)" stroke="none" font-family="geogebra-sans-serif, sans-serif" font-size="16px" font-style="normal" font-weight="normal" text-decoration="normal" x="148" y="730" text-anchor="start" dominant-baseline="alphabetic" fill-opacity="1">A</text><path fill="rgb(77,77,255)" stroke="none" paint-order="stroke fill markers" d=" M 246.09904459697847 649.5034881290713 C 246.09904459697847 652.2649118782253 243.86046834613245 654.5034881290713 241.09904459697847 654.5034881290713 C 238.3376208478245 654.5034881290713 236.09904459697847 652.2649118782253 236.09904459697847 649.5034881290713 C 236.09904459697847 646.7420643799173 238.3376208478245 644.5034881290713 241.09904459697847 644.5034881290713 C 243.86046834613245 644.5034881290713 246.09904459697847 646.7420643799173 246.09904459697847 649.5034881290713 Z" fill-opacity="1"/><path fill="none" stroke="rgb(0,0,0)" paint-order="fill stroke markers" d=" M 246.09904459697847 649.5034881290713 C 246.09904459697847 652.2649118782253 243.86046834613245 654.5034881290713 241.09904459697847 654.5034881290713 C 238.3376208478245 654.5034881290713 236.09904459697847 652.2649118782253 236.09904459697847 649.5034881290713 C 236.09904459697847 646.7420643799173 238.3376208478245 644.5034881290713 241.09904459697847 644.5034881290713 C 243.86046834613245 644.5034881290713 246.09904459697847 646.7420643799173 246.09904459697847 649.5034881290713 Z" stroke-opacity="1" stroke-linecap="round" stroke-linejoin="round" stroke-miterlimit="10"/><text fill="rgb(77,77,255)" stroke="none" font-family="geogebra-sans-serif, sans-serif" font-size="16px" font-style="normal" font-weight="normal" text-decoration="normal" x="245" y="640" text-anchor="start" dominant-baseline="alphabetic" fill-opacity="1">B</text><text fill="none" stroke="rgb(255,255,255)" font-family="geogebra-sans-serif, sans-serif" font-size="16px" font-style="normal" font-weight="normal" text-decoration="normal" x="245" y="640" text-anchor="start" dominant-baseline="alphabetic" stroke-opacity="1" stroke-linejoin="bevel" stroke-miterlimit="10" stroke-width="3">B</text><text fill="rgb(77,77,255)" stroke="none" font-family="geogebra-sans-serif, sans-serif" font-size="16px" font-style="normal" font-weight="normal" text-decoration="normal" x="245" y="640" text-anchor="start" dominant-baseline="alphabetic" fill-opacity="1">B</text><path fill="rgb(77,77,255)" stroke="none" paint-order="stroke fill markers" d=" M 349.30783430786175 585.9903867685282 C 349.30783430786175 588.7518105176822 347.0692580570157 590.9903867685282 344.30783430786175 590.9903867685282 C 341.5464105587078 590.9903867685282 339.30783430786175 588.7518105176822 339.30783430786175 585.9903867685282 C 339.30783430786175 583.2289630193742 341.5464105587078 580.9903867685282 344.30783430786175 580.9903867685282 C 347.0692580570157 580.9903867685282 349.30783430786175 583.2289630193742 349.30783430786175 585.9903867685282 Z" fill-opacity="1"/><path fill="none" stroke="rgb(0,0,0)" paint-order="fill stroke markers" d=" M 349.30783430786175 585.9903867685282 C 349.30783430786175 588.7518105176822 347.0692580570157 590.9903867685282 344.30783430786175 590.9903867685282 C 341.5464105587078 590.9903867685282 339.30783430786175 588.7518105176822 339.30783430786175 585.9903867685282 C 339.30783430786175 583.2289630193742 341.5464105587078 580.9903867685282 344.30783430786175 580.9903867685282 C 347.0692580570157 580.9903867685282 349.30783430786175 583.2289630193742 349.30783430786175 585.9903867685282 Z" stroke-opacity="1" stroke-linecap="round" stroke-linejoin="round" stroke-miterlimit="10"/><text fill="rgb(77,77,255)" stroke="none" font-family="geogebra-sans-serif, sans-serif" font-size="16px" font-style="normal" font-weight="normal" text-decoration="normal" x="348" y="576" text-anchor="start" dominant-baseline="alphabetic" fill-opacity="1">C</text><text fill="none" stroke="rgb(255,255,255)" font-family="geogebra-sans-serif, sans-serif" font-size="16px" font-style="normal" font-weight="normal" text-decoration="normal" x="348" y="576" text-anchor="start" dominant-baseline="alphabetic" stroke-opacity="1" stroke-linejoin="bevel" stroke-miterlimit="10" stroke-width="3">C</text><text fill="rgb(77,77,255)" stroke="none" font-family="geogebra-sans-serif, sans-serif" font-size="16px" font-style="normal" font-weight="normal" text-decoration="normal" x="348" y="576" text-anchor="start" dominant-baseline="alphabetic" fill-opacity="1">C</text><path fill="rgb(77,77,255)" stroke="none" paint-order="stroke fill markers" d=" M 547.7862760595605 541.3327373743962 C 547.7862760595605 544.0941611235502 545.5476998087145 546.3327373743962 542.7862760595605 546.3327373743962 C 540.0248523104065 546.3327373743962 537.7862760595605 544.0941611235502 537.7862760595605 541.3327373743962 C 537.7862760595605 538.5713136252422 540.0248523104065 536.3327373743962 542.7862760595605 536.3327373743962 C 545.5476998087145 536.3327373743962 547.7862760595605 538.5713136252422 547.7862760595605 541.3327373743962 Z" fill-opacity="1"/><path fill="none" stroke="rgb(0,0,0)" paint-order="fill stroke markers" d=" M 547.7862760595605 541.3327373743962 C 547.7862760595605 544.0941611235502 545.5476998087145 546.3327373743962 542.7862760595605 546.3327373743962 C 540.0248523104065 546.3327373743962 537.7862760595605 544.0941611235502 537.7862760595605 541.3327373743962 C 537.7862760595605 538.5713136252422 540.0248523104065 536.3327373743962 542.7862760595605 536.3327373743962 C 545.5476998087145 536.3327373743962 547.7862760595605 538.5713136252422 547.7862760595605 541.3327373743962 Z" stroke-opacity="1" stroke-linecap="round" stroke-linejoin="round" stroke-miterlimit="10"/><text fill="rgb(77,77,255)" stroke="none" font-family="geogebra-sans-serif, sans-serif" font-size="16px" font-style="normal" font-weight="normal" text-decoration="normal" x="547" y="531" text-anchor="start" dominant-baseline="alphabetic" fill-opacity="1">D</text><text fill="none" stroke="rgb(255,255,255)" font-family="geogebra-sans-serif, sans-serif" font-size="16px" font-style="normal" font-weight="normal" text-decoration="normal" x="547" y="531" text-anchor="start" dominant-baseline="alphabetic" stroke-opacity="1" stroke-linejoin="bevel" stroke-miterlimit="10" stroke-width="3">D</text><text fill="rgb(77,77,255)" stroke="none" font-family="geogebra-sans-serif, sans-serif" font-size="16px" font-style="normal" font-weight="normal" text-decoration="normal" x="547" y="531" text-anchor="start" dominant-baseline="alphabetic" fill-opacity="1">D</text><path fill="rgb(0,153,0)" stroke="none" paint-order="stroke fill markers" d=" M 787.9451905791159 500.64465681529833 C 787.9451905791159 503.4060805644523 785.7066143282699 505.64465681529833 782.9451905791159 505.64465681529833 C 780.1837668299619 505.64465681529833 777.9451905791159 503.4060805644523 777.9451905791159 500.64465681529833 C 777.9451905791159 497.8832330661444 780.1837668299619 495.64465681529833 782.9451905791159 495.64465681529833 C 785.7066143282699 495.64465681529833 787.9451905791159 497.8832330661444 787.9451905791159 500.64465681529833 Z" fill-opacity="1"/><path fill="none" stroke="rgb(0,0,0)" paint-order="fill stroke markers" d=" M 787.9451905791159 500.64465681529833 C 787.9451905791159 503.4060805644523 785.7066143282699 505.64465681529833 782.9451905791159 505.64465681529833 C 780.1837668299619 505.64465681529833 777.9451905791159 503.4060805644523 777.9451905791159 500.64465681529833 C 777.9451905791159 497.8832330661444 780.1837668299619 495.64465681529833 782.9451905791159 495.64465681529833 C 785.7066143282699 495.64465681529833 787.9451905791159 497.8832330661444 787.9451905791159 500.64465681529833 Z" stroke-opacity="1" stroke-linecap="round" stroke-linejoin="round" stroke-miterlimit="10"/><text fill="rgb(0,153,0)" stroke="none" font-family="geogebra-sans-serif, sans-serif" font-size="16px" font-style="normal" font-weight="normal" text-decoration="normal" x="787" y="491" text-anchor="start" dominant-baseline="alphabetic" fill-opacity="1">E</text><text fill="none" stroke="rgb(255,255,255)" font-family="geogebra-sans-serif, sans-serif" font-size="16px" font-style="normal" font-weight="normal" text-decoration="normal" x="787" y="491" text-anchor="start" dominant-baseline="alphabetic" stroke-opacity="1" stroke-linejoin="bevel" stroke-miterlimit="10" stroke-width="3">E</text><text fill="rgb(0,153,0)" stroke="none" font-family="geogebra-sans-serif, sans-serif" font-size="16px" font-style="normal" font-weight="normal" text-decoration="normal" x="787" y="491" text-anchor="start" dominant-baseline="alphabetic" fill-opacity="1">E</text><path fill="rgb(255,0,51)" stroke="none" paint-order="stroke fill markers" d=" M 788 239.0000000000001 C 788 241.7614237491541 785.761423749154 244.0000000000001 783 244.0000000000001 C 780.238576250846 244.0000000000001 778 241.7614237491541 778 239.0000000000001 C 778 236.23857625084614 780.238576250846 234.0000000000001 783 234.0000000000001 C 785.761423749154 234.0000000000001 788 236.23857625084614 788 239.0000000000001 Z" fill-opacity="1"/><path fill="none" stroke="rgb(0,0,0)" paint-order="fill stroke markers" d=" M 788 239.0000000000001 C 788 241.7614237491541 785.761423749154 244.0000000000001 783 244.0000000000001 C 780.238576250846 244.0000000000001 778 241.7614237491541 778 239.0000000000001 C 778 236.23857625084614 780.238576250846 234.0000000000001 783 234.0000000000001 C 785.761423749154 234.0000000000001 788 236.23857625084614 788 239.0000000000001 Z" stroke-opacity="1" stroke-linecap="round" stroke-linejoin="round" stroke-miterlimit="10"/><text fill="rgb(255,0,51)" stroke="none" font-family="geogebra-sans-serif, sans-serif" font-size="16px" font-style="normal" font-weight="normal" text-decoration="normal" x="787" y="229" text-anchor="start" dominant-baseline="alphabetic" fill-opacity="1">F</text><text fill="none" stroke="rgb(255,255,255)" font-family="geogebra-sans-serif, sans-serif" font-size="16px" font-style="normal" font-weight="normal" text-decoration="normal" x="787" y="229" text-anchor="start" dominant-baseline="alphabetic" stroke-opacity="1" stroke-linejoin="bevel" stroke-miterlimit="10" stroke-width="3">F</text><text fill="rgb(255,0,51)" stroke="none" font-family="geogebra-sans-serif, sans-serif" font-size="16px" font-style="normal" font-weight="normal" text-decoration="normal" x="787" y="229" text-anchor="start" dominant-baseline="alphabetic" fill-opacity="1">F</text></g></g></svg>